<svg xmlns="http://www.w3.org/2000/svg" viewBox="0 0 467.35 454.74"><g data-name="Layer 2"><g data-name="Layer 1"><rect width="78.73" height="55.44" x="382.26" y="81.52" fill="none" stroke="#008ef8" stroke-linecap="round" stroke-linejoin="round" transform="rotate(-164.89 421.63 109.23)"/><circle cx="423.51" cy="147.56" r="35.21" fill="#c1e3f7"/><rect width="26.22" height="242.7" x="231.92" y="211.64" fill="#f46534"/><path fill="#ffcd52" d="M318.93,229.34h-174V159.12a31.62,31.62,0,0,1,31.62-31.62H287.32a31.62,31.62,0,0,1,31.61,31.62v70.22Z"/><path fill="#fff" stroke="#f46534" stroke-miterlimit="10" d="M208.14,229.34H144.92V159.12a31.62,31.62,0,0,1,31.61-31.62h0a31.62,31.62,0,0,1,31.61,31.62Z"/><rect width="48.59" height="48.59" x="277.36" y="276.26" fill="none" stroke="#ffcd52" stroke-linecap="round" stroke-linejoin="round" rx="5.52" transform="rotate(45 301.654 300.56)"/><rect width="97.06" height="98.1" x="27.42" y="26.9" fill="#c1e3f7" rx="13" transform="rotate(45 75.95 75.95)"/><rect width="114.32" height="114.32" x="18.79" y="18.79" fill="none" stroke="#008ef8" stroke-linecap="round" stroke-linejoin="round" rx="13" transform="rotate(45 75.95 75.95)"/><path fill="#0850ec" d="M67.26,269.6a79,79,0,0,1,1.2,7.88c.31,2.64.49,5.28.65,7.92s.23,5.29.21,7.94a79.15,79.15,0,0,1-.35,8,79.63,79.63,0,0,1-1.21-7.89c-.3-2.64-.48-5.28-.64-7.92s-.23-5.29-.21-7.94S67,272.26,67.26,269.6Z"/><path fill="#0850ec" d="M84 284.6a76.15 76.15 0 01-7.88 1.2c-2.64.31-5.28.49-7.92.65s-5.29.23-7.94.21a79.15 79.15 0 01-8-.35 79.63 79.63 0 017.89-1.21c2.64-.3 5.28-.48 7.92-.64s5.29-.22 7.94-.21S81.31 284.33 84 284.6zM48.23 302.85a37.7 37.7 0 011.07 5.3c.24 1.77.41 3.54.51 5.32s.11 3.57.07 5.35a36.63 36.63 0 01-.5 5.39 36.56 36.56 0 01-1.06-5.3c-.24-1.77-.42-3.55-.51-5.33s-.12-3.56-.06-5.35A37.73 37.73 0 0148.23 302.85z"/><path fill="#0850ec" d="M59.49 313a38 38 0 01-5.3 1.07c-1.77.24-3.55.41-5.33.51s-3.56.11-5.35.06a36.35 36.35 0 01-5.38-.49 36.56 36.56 0 015.3-1.06c1.77-.25 3.55-.42 5.33-.51s3.56-.12 5.35-.07A36.47 36.47 0 0159.49 313zM311.84 56.13a47.47 47.47 0 01-6.1 1.06c-2 .24-4.09.41-6.13.51s-4.1.11-6.16.06a49.49 49.49 0 01-6.17-.5 47.47 47.47 0 016.1-1.06c2-.24 4.09-.41 6.13-.5s4.1-.11 6.16-.06A47.63 47.63 0 01311.84 56.13z"/><path fill="#0850ec" d="M300.12 69a47.62 47.62 0 01-1.06-6.11q-.36-3.06-.5-6.13c-.1-2.05-.11-4.1-.06-6.15a48 48 0 01.5-6.18 47.93 47.93 0 011.06 6.11q.36 3.06.5 6.13t.06 6.15A49.65 49.65 0 01300.12 69zM320.68 66.23a36.54 36.54 0 011.09 5.29c.25 1.77.44 3.55.54 5.33s.14 3.56.1 5.35a36.29 36.29 0 01-.46 5.38 37.67 37.67 0 01-1.1-5.29c-.25-1.77-.43-3.54-.53-5.32s-.14-3.57-.1-5.35A36.54 36.54 0 01320.68 66.23z"/><path fill="#0850ec" d="M332 76.27a36.54 36.54 0 01-5.29 1.09c-1.77.26-3.55.44-5.33.54s-3.56.14-5.35.1a36.41 36.41 0 01-5.38-.46 36.27 36.27 0 015.29-1.09c1.77-.25 3.55-.44 5.32-.54s3.57-.14 5.36-.1A36.41 36.41 0 01332 76.27zM415.26 276.6a47.93 47.93 0 01-6.11 1.06q-3.06.36-6.13.5t-6.15.07a49.8 49.8 0 01-6.18-.5 47.93 47.93 0 016.11-1.06q3.06-.36 6.13-.5c2.05-.1 4.1-.11 6.15-.06A47.79 47.79 0 01415.26 276.6z"/><path fill="#0850ec" d="M403.54 289.45a47.93 47.93 0 01-1.06-6.11q-.36-3.06-.5-6.13t-.06-6.15a47.79 47.79 0 01.49-6.18 47.93 47.93 0 011.06 6.11c.24 2 .42 4.08.5 6.13s.12 4.1.06 6.15A47.79 47.79 0 01403.54 289.45zM424.09 286.7a37.67 37.67 0 011.1 5.29c.25 1.77.43 3.55.54 5.33s.14 3.56.1 5.35a36.41 36.41 0 01-.46 5.38 36.3 36.3 0 01-1.1-5.29c-.25-1.77-.44-3.55-.54-5.33s-.13-3.56-.09-5.35A37.79 37.79 0 01424.09 286.7z"/><path fill="#0850ec" d="M435.41,296.74a36.67,36.67,0,0,1-5.3,1.09c-1.77.25-3.54.44-5.32.54s-3.56.14-5.35.1a36.29,36.29,0,0,1-5.38-.46,36.27,36.27,0,0,1,5.29-1.09c1.77-.26,3.54-.44,5.32-.54s3.56-.14,5.35-.1A36.54,36.54,0,0,1,435.41,296.74Z"/><path fill="#f46534" d="M144.92,229.34h63.22v70.22a31.62,31.62,0,0,1-31.61,31.62h0a31.62,31.62,0,0,1-31.61-31.62Z"/><path fill="#ffcd52" d="M199.4 272.81c-.28 3.51-.65 7-1 10.51v-.06c.13 2.22.2 4.43.29 6.65l.19 6.64a.19.19 0 010 .08c-.44 3.21-.9 6.41-1.42 9.6s-1 6.39-1.65 9.57c.25-3.23.58-6.45.94-9.67s.74-6.42 1.16-9.63v.08l-.17-6.65c0-2.21-.09-4.43-.08-6.65v-.06C198.16 279.75 198.73 276.27 199.4 272.81zM182.68 253.35c-1 9.23-2.18 18.45-3.34 27.67l0-.21c1.17 2.18 2.27 4.41 3.4 6.62s2.26 4.42 3.34 6.66h0a.42.42 0 010 .29c-.83 4.31-1.6 8.64-2.49 12.94s-1.76 8.6-2.73 12.89q.93-6.53 2-13c.68-4.34 1.5-8.66 2.24-13l.05.3c-1.14-2.21-2.21-4.45-3.31-6.68s-2.2-4.44-3.24-6.7h0a.39.39 0 010-.21C179.91 271.72 181.24 262.53 182.68 253.35zM236.74 320.22c.24 8.18.34 16.36.42 24.54l.06 12.27c0 4.09 0 8.18 0 12.27l0-.12 2 7.43 1.91 7.44h0a.22.22 0 010 .08l-.13 8.56-.21 8.56-.21-8.56-.13-8.56v.09l-2.08-7.4-2-7.41a.5.5 0 010-.12c0-4.09-.05-8.18 0-12.27l.06-12.27C236.4 336.58 236.49 328.4 236.74 320.22zM172.84 242.6c-.91 8.14-2 16.25-3 24.36l-1.67 12.16c-.54 4.06-1.15 8.1-1.73 12.15v-.12l.9 7.63.86 7.63h0v.08L166.86 315l-1.41 8.45 1-8.51 1.07-8.49v.09l-1-7.62-1-7.62a.48.48 0 010-.12c.56-4.05 1.09-8.11 1.7-12.15L169 266.84C170.21 258.76 171.45 250.67 172.84 242.6zM238.73 237.46c.21 4.38.31 8.75.39 13.13s.07 8.75.11 13.13 0 8.75-.11 13.12l-.14 6.57c-.08 2.18-.13 4.37-.25 6.56-.11-2.19-.16-4.38-.24-6.56l-.14-6.57c-.08-4.37-.08-8.75-.12-13.12s0-8.75.12-13.13S238.53 241.84 238.73 237.46zM156.42 274.84c0 2.21-.17 4.41-.33 6.61s-.37 4.39-.59 6.58-.5 4.38-.82 6.56l-.5 3.27c-.2 1.09-.36 2.18-.59 3.26 0-1.11.07-2.21.11-3.31l.21-3.3c.15-2.2.37-4.39.6-6.58s.49-4.38.82-6.56S156 277 156.42 274.84zM195.46 234.67c0 2.21-.17 4.41-.32 6.61s-.37 4.39-.6 6.58-.49 4.38-.82 6.56l-.49 3.27c-.2 1.08-.37 2.17-.6 3.25 0-1.1.07-2.2.11-3.31l.22-3.3c.14-2.2.37-4.39.59-6.58s.5-4.38.82-6.56S195 236.83 195.46 234.67zM160.31 234.67c0 2.21-.17 4.41-.33 6.61s-.37 4.39-.59 6.58-.5 4.38-.83 6.56l-.49 3.27c-.2 1.08-.37 2.17-.6 3.25 0-1.1.08-2.2.11-3.31l.22-3.3c.15-2.2.37-4.39.59-6.58s.5-4.38.83-6.56S159.87 236.83 160.31 234.67zM249.29 372.73c.21 6 .3 12.08.38 18.12s.08 12.08.12 18.12 0 12.08-.11 18.12l-.14 9.06c-.09 3-.13 6-.25 9.06-.11-3-.16-6-.24-9.06l-.14-9.06c-.08-6-.08-12.08-.12-18.12s0-12.08.12-18.12S249.09 378.77 249.29 372.73z"/><path fill="#f46534" d="M249.58,81.16c-1.43-.49-2.86-1-4.28-1.42-.72-.22-1.43-.48-2.14-.66a7.67,7.67,0,0,0-2.14.07H218.54v71.56a15.68,15.68,0,0,1-.12,2.65,3.22,3.22,0,0,0,.22,1.32l.43,1.33.86,2.65c1.19,3.53,2.47,7.06,4,10.59,1.5-3.53,2.78-7.06,4-10.59l.86-2.65.43-1.33a3.22,3.22,0,0,0,.22-1.32,15.68,15.68,0,0,1-.12-2.65V89.86H241a7.67,7.67,0,0,0,2.14.07c.71-.19,1.42-.44,2.14-.66,1.42-.44,2.85-.94,4.28-1.42,2.85-1,5.7-2.09,8.56-3.35C255.28,83.25,252.43,82.15,249.58,81.16Z"/><path fill="#ffedc5" d="M350.82 93.08l-12.06 44.69a37.51 37.51 0 01-1.39-4.55l10-36.94A34.1 34.1 0 01350.82 93.08zM342.31 102.75l-6.06 22.45A39.39 39.39 0 01342.31 102.75zM357.3 88.77l-15.11 56a35.32 35.32 0 01-1.75-3.18l13.77-51A28.23 28.23 0 01357.3 88.77zM363.52 86.12l-17.29 64a27 27 0 01-2-2.38l16.36-60.6A24.59 24.59 0 01363.52 86.12zM369.42 84.66L350.6 154.4a26.68 26.68 0 01-2.1-1.9l18.16-67.28a3.69 3.69 0 01.39-.1C367.83 84.94 368.63 84.79 369.42 84.66zM374.94 84.14L355.1 157.62c-.76-.46-1.49-1-2.21-1.48l19.4-71.85A23.54 23.54 0 01374.94 84.14zM380.2 84.34l-20.44 75.74c-.8-.35-1.56-.71-2.31-1.12l20.19-74.79A21.58 21.58 0 01380.2 84.34zM385.46 85.26l-20.7 76.67a21.66 21.66 0 01-2.39-.81L383 84.73C383.82 84.87 384.66 85 385.46 85.26zM390.55 86.9L370 163.1c-.83-.12-1.65-.26-2.49-.46L388.17 86A21 21 0 01390.55 86.9zM395.5 89.25l-20.06 74.31c-.86 0-1.74-.06-2.58-.13L393.22 88C394 88.42 394.75 88.81 395.5 89.25zM400.17 92.34L381 163.21a22.12 22.12 0 01-2.68.27L398 90.78A23.57 23.57 0 01400.17 92.34zM404.62 96.33L386.89 162c-.68.21-1.36.39-2 .55a7 7 0 01-.77.16l18.47-68.4A28 28 0 01404.62 96.33zM408.66 101.28l-15.8 58.5a26.13 26.13 0 01-2.94 1.24L406.74 98.7A23.33 23.33 0 01408.66 101.28zM412.25 107.68l-13.06 48.38a29 29 0 01-3.16 2.05l14.53-53.84A32.75 32.75 0 01412.25 107.68zM415.15 117.25l-8.62 31.92a31.7 31.7 0 01-3.65 3.87l11.05-40.95c.28.91.54 1.87.75 2.82C414.86 115.69 415 116.48 415.15 117.25zM411.41 141.7l4.22-15.61A39.14 39.14 0 01411.41 141.7z"/><ellipse cx="388.7" cy="419.57" fill="none" stroke="#ffcd52" stroke-miterlimit="10" rx="19.68" ry="34.1"/><path fill="#ffcd52" d="M405.58,434.57c2.8-6.47.69-10.43.69-15,0-9.63-3.23-20.53-9-27.37a52.77,52.77,0,0,0-2.45,15.13C394.85,417,399.84,427.73,405.58,434.57Z"/><ellipse cx="418.98" cy="407.4" fill="#fff" rx="19.68" ry="34.1"/><path fill="#ffcd52" d="M370.66,420.64c0,3.81-1.54,6.85.56,12,9-7.22,15.84-19.32,15.84-31.79a55.56,55.56,0,0,0-1.91-13C376.11,395,370.66,408.17,370.66,420.64Z"/><ellipse cx="363.86" cy="398.89" fill="#fff" rx="19.68" ry="34.1"/><line x1="388.7" x2="388.7" y1="453.67" y2="402.53" fill="none" stroke="#ffcd52" stroke-linecap="round" stroke-linejoin="round"/><line x1="388.7" x2="380.73" y1="422.56" y2="413.45" fill="none" stroke="#ffcd52" stroke-linecap="round" stroke-linejoin="round"/><line x1="388.7" x2="377.21" y1="433.44" y2="420.31" fill="none" stroke="#ffcd52" stroke-linecap="round" stroke-linejoin="round"/><line x1="388.7" x2="376.84" y1="444.65" y2="431.09" fill="none" stroke="#ffcd52" stroke-linecap="round" stroke-linejoin="round"/><line x1="388.7" x2="398.36" y1="422.58" y2="411.53" fill="none" stroke="#ffcd52" stroke-linecap="round" stroke-linejoin="round"/><line x1="388.7" x2="400.56" y1="433.46" y2="419.9" fill="none" stroke="#ffcd52" stroke-linecap="round" stroke-linejoin="round"/><line x1="388.7" x2="400.56" y1="444.67" y2="431.11" fill="none" stroke="#ffcd52" stroke-linecap="round" stroke-linejoin="round"/><ellipse cx="363.86" cy="398.89" fill="none" stroke="#008ef8" stroke-miterlimit="10" rx="19.68" ry="34.1"/><polyline fill="none" stroke="#008ef8" stroke-linecap="round" stroke-linejoin="round" points="363.86 381.85 363.86 432.99 363.86 453.8"/><line x1="363.86" x2="354.22" y1="401.88" y2="390.85" fill="none" stroke="#008ef8" stroke-linecap="round" stroke-linejoin="round"/><line x1="363.86" x2="352" y1="412.76" y2="399.2" fill="none" stroke="#008ef8" stroke-linecap="round" stroke-linejoin="round"/><line x1="363.86" x2="352" y1="423.97" y2="410.41" fill="none" stroke="#008ef8" stroke-linecap="round" stroke-linejoin="round"/><line x1="363.86" x2="373.53" y1="401.9" y2="390.85" fill="none" stroke="#008ef8" stroke-linecap="round" stroke-linejoin="round"/><line x1="363.86" x2="375.72" y1="412.78" y2="399.22" fill="none" stroke="#008ef8" stroke-linecap="round" stroke-linejoin="round"/><line x1="363.86" x2="375.72" y1="423.99" y2="410.43" fill="none" stroke="#008ef8" stroke-linecap="round" stroke-linejoin="round"/><ellipse cx="418.98" cy="407.4" fill="none" stroke="#439916" stroke-linecap="round" stroke-linejoin="round" rx="19.68" ry="34.1"/><polyline fill="none" stroke="#439916" stroke-linecap="round" stroke-linejoin="round" points="418.98 390.36 418.98 441.49 418.98 453.8"/><line x1="418.98" x2="409.33" y1="410.39" y2="399.36" fill="none" stroke="#439916" stroke-linecap="round" stroke-linejoin="round"/><line x1="418.98" x2="407.12" y1="421.27" y2="407.7" fill="none" stroke="#439916" stroke-linecap="round" stroke-linejoin="round"/><line x1="418.98" x2="407.12" y1="432.48" y2="418.92" fill="none" stroke="#439916" stroke-linecap="round" stroke-linejoin="round"/><line x1="418.98" x2="428.64" y1="410.41" y2="399.36" fill="none" stroke="#439916" stroke-linecap="round" stroke-linejoin="round"/><line x1="418.98" x2="430.84" y1="421.29" y2="407.73" fill="none" stroke="#439916" stroke-linecap="round" stroke-linejoin="round"/><line x1="418.98" x2="430.84" y1="432.5" y2="418.94" fill="none" stroke="#439916" stroke-linecap="round" stroke-linejoin="round"/><ellipse cx="95.53" cy="420" fill="none" stroke="#ffcd52" stroke-miterlimit="10" rx="19.68" ry="34.1"/><path fill="#ffcd52" d="M112.41,435c2.81-6.46.69-10.42.69-15,0-9.63-3.22-20.53-9-27.37a52.48,52.48,0,0,0-2.45,15.13C101.69,417.39,106.67,428.16,112.41,435Z"/><ellipse cx="125.81" cy="407.83" fill="#fff" rx="19.68" ry="34.1"/><path fill="#ffcd52" d="M77.5,421.07c0,3.81-1.55,6.85.56,12,9-7.21,15.83-19.32,15.83-31.79a55.47,55.47,0,0,0-1.9-13C83,395.43,77.5,408.6,77.5,421.07Z"/><ellipse cx="70.7" cy="399.32" fill="#fff" rx="19.68" ry="34.1"/><line x1="95.53" x2="95.53" y1="454.1" y2="402.97" fill="none" stroke="#ffcd52" stroke-linecap="round" stroke-linejoin="round"/><line x1="95.53" x2="87.56" y1="422.99" y2="413.88" fill="none" stroke="#ffcd52" stroke-linecap="round" stroke-linejoin="round"/><line x1="95.53" x2="84.05" y1="433.87" y2="420.74" fill="none" stroke="#ffcd52" stroke-linecap="round" stroke-linejoin="round"/><line x1="95.53" x2="83.67" y1="445.09" y2="431.52" fill="none" stroke="#ffcd52" stroke-linecap="round" stroke-linejoin="round"/><line x1="95.53" x2="105.2" y1="423.02" y2="411.96" fill="none" stroke="#ffcd52" stroke-linecap="round" stroke-linejoin="round"/><line x1="95.53" x2="107.39" y1="433.89" y2="420.33" fill="none" stroke="#ffcd52" stroke-linecap="round" stroke-linejoin="round"/><line x1="95.53" x2="107.39" y1="445.11" y2="431.55" fill="none" stroke="#ffcd52" stroke-linecap="round" stroke-linejoin="round"/><ellipse cx="70.7" cy="399.32" fill="none" stroke="#008ef8" stroke-miterlimit="10" rx="19.68" ry="34.1"/><polyline fill="none" stroke="#008ef8" stroke-linecap="round" stroke-linejoin="round" points="70.7 382.29 70.7 433.42 70.7 454.24"/><line x1="70.7" x2="61.05" y1="402.31" y2="391.28" fill="none" stroke="#008ef8" stroke-linecap="round" stroke-linejoin="round"/><line x1="70.7" x2="58.84" y1="413.19" y2="399.63" fill="none" stroke="#008ef8" stroke-linecap="round" stroke-linejoin="round"/><line x1="70.7" x2="58.84" y1="424.4" y2="410.84" fill="none" stroke="#008ef8" stroke-linecap="round" stroke-linejoin="round"/><line x1="70.7" x2="80.36" y1="402.34" y2="391.28" fill="none" stroke="#008ef8" stroke-linecap="round" stroke-linejoin="round"/><line x1="70.7" x2="82.56" y1="413.21" y2="399.65" fill="none" stroke="#008ef8" stroke-linecap="round" stroke-linejoin="round"/><line x1="70.7" x2="82.56" y1="424.43" y2="410.87" fill="none" stroke="#008ef8" stroke-linecap="round" stroke-linejoin="round"/><ellipse cx="125.81" cy="407.83" fill="none" stroke="#ff5061" stroke-linecap="round" stroke-linejoin="round" rx="19.68" ry="34.1"/><polyline fill="none" stroke="#ff5061" stroke-linecap="round" stroke-linejoin="round" points="125.81 390.79 125.81 441.93 125.81 454.24"/><line x1="125.81" x2="116.17" y1="410.82" y2="399.79" fill="none" stroke="#ff5061" stroke-linecap="round" stroke-linejoin="round"/><line x1="125.81" x2="113.95" y1="421.7" y2="408.14" fill="none" stroke="#ff5061" stroke-linecap="round" stroke-linejoin="round"/><line x1="125.81" x2="113.95" y1="432.91" y2="419.35" fill="none" stroke="#ff5061" stroke-linecap="round" stroke-linejoin="round"/><line x1="125.81" x2="135.48" y1="410.84" y2="399.79" fill="none" stroke="#ff5061" stroke-linecap="round" stroke-linejoin="round"/><line x1="125.81" x2="137.67" y1="421.72" y2="408.16" fill="none" stroke="#ff5061" stroke-linecap="round" stroke-linejoin="round"/><line x1="125.81" x2="137.67" y1="432.93" y2="419.37" fill="none" stroke="#ff5061" stroke-linecap="round" stroke-linejoin="round"/><path fill="#a3a3a3" d="M227,417.31h37.82a36.82,36.82,0,0,1,36.82,36.82v0a0,0,0,0,1,0,0H190.2a0,0,0,0,1,0,0v0A36.82,36.82,0,0,1,227,417.31Z"/><path fill="#7f7f7f" d="M204.91 443.16a2 2 0 11-4.1 0c0-1.13 1.41-1.06 2.55-1.06S204.91 442 204.91 443.16zM224.59 431.33c0 2.14-2.23 2.88-4.37 2.88a3.88 3.88 0 110-7.75C222.36 426.46 224.59 429.19 224.59 431.33zM258.47 431.79a3.88 3.88 0 01-3.88 3.88c-2.14 0-3.38-.75-3.38-2.89s1.24-4.87 3.38-4.87A3.88 3.88 0 01258.47 431.79zM294.53 445.5c0 2.15-2.23 2.89-4.37 2.89a3.88 3.88 0 01-3.88-3.88c0-2.14 2.23-2.88 4.37-2.88A3.87 3.87 0 01294.53 445.5zM238.59 446.63a3.88 3.88 0 01-3.87 3.88c-2.14 0-4.38-2.73-4.38-4.87a3.88 3.88 0 013.88-3.88C236.36 441.76 238.59 444.49 238.59 446.63zM269.4 446.28c0 1.07-.87.86-1.94.86s-1.44.13-1.44-.94a1.94 1.94 0 011.94-1.94C269 444.26 269.4 445.21 269.4 446.28zM279.2 426c0 1.07-.37 2.94-1.44 2.94a1.94 1.94 0 01-1.94-1.94c0-1.07.37-2.93 1.45-2.93A1.92 1.92 0 01279.2 426zM244.18 422.55c0 1.28-1.53 1.31-2.8 1.31a2.3 2.3 0 110-4.6C242.65 419.26 244.18 421.28 244.18 422.55z"/><line x1="51.02" x2="440.84" y1="454.24" y2="454.24" fill="none" stroke="#545454" stroke-linecap="round" stroke-linejoin="round"/></g></g></svg>